<svg width="45" height="19" viewBox="0 0 45 19" fill="none" xmlns="http://www.w3.org/2000/svg">
<g clip-path="url(#clip0)">
<path d="M26.8917 6.54151C25.9079 6.54151 25.1752 7.02456 25.1752 8.18717C25.1752 9.06309 25.6581 9.67129 26.8387 9.67129C27.8394 9.67129 28.5191 9.08155 28.5191 8.15079C28.5191 7.0961 27.9109 6.54151 26.8917 6.54151ZM24.9247 14.7507C24.6918 15.0363 24.4598 15.3401 24.4598 15.6981C24.4598 16.413 25.3714 16.6282 26.6237 16.6282C27.6608 16.6282 29.0737 16.5554 29.0737 15.5911C29.0737 15.0179 28.394 14.9825 27.5351 14.9287L24.9247 14.7507ZM30.2181 6.59547C30.5394 7.0068 30.8797 7.57932 30.8797 8.4018C30.8797 10.3867 29.3239 11.549 27.071 11.549C26.4982 11.549 25.9796 11.4776 25.6581 11.3883L25.0677 12.3358L26.82 12.443C29.9141 12.6402 31.7375 12.7299 31.7375 15.1073C31.7375 17.1643 29.9319 18.3261 26.82 18.3261C23.5833 18.3261 22.3494 17.5034 22.3494 16.0908C22.3494 15.2861 22.7071 14.8577 23.333 14.2666C22.7428 14.0171 22.5462 13.5703 22.5462 13.0871C22.5462 12.6933 22.7428 12.336 23.0651 11.9958C23.3868 11.6566 23.7444 11.3164 24.1736 10.923C23.2975 10.4938 22.6355 9.56389 22.6355 8.24026C22.6355 6.18415 23.9949 4.77192 26.7304 4.77192C27.4996 4.77192 27.9647 4.84258 28.376 4.95069H31.8636V6.47014L30.2181 6.59547ZM35.0097 3.34581C33.9902 3.34581 33.4001 2.75518 33.4001 1.73547C33.4001 0.717173 33.99 0.162231 35.0097 0.162231C36.0468 0.162231 36.6371 0.717173 36.6371 1.73547C36.6371 2.75518 36.047 3.34581 35.0097 3.34581ZM32.7024 14.0925V12.6805L33.6147 12.5557C33.8652 12.5197 33.9007 12.4662 33.9007 12.1974V6.93983C33.9007 6.74366 33.8473 6.6178 33.6678 6.56471L32.7024 6.22458L32.8989 4.77649H36.6011V12.1974C36.6011 12.484 36.6183 12.5197 36.8874 12.5559L37.7994 12.6807V14.0925H32.7024ZM44.8713 13.3993C44.1021 13.7746 42.9755 14.1143 41.9558 14.1143C39.8277 14.1143 39.0234 13.2569 39.0234 11.235V6.5503C39.0234 6.44307 39.0234 6.37153 38.8797 6.37153H37.6282V4.77948C39.2023 4.60018 39.8277 3.81338 40.0244 1.86415H41.7235V4.40418C41.7235 4.52899 41.7235 4.58295 41.8668 4.58295H44.3881V6.37118H41.7235V10.6449C41.7235 11.7 41.9742 12.111 42.9394 12.111C43.4408 12.111 43.9588 11.9862 44.3879 11.8251L44.8713 13.3991" fill="#2F2707"/>
<path d="M18.3742 8.70646L10.1976 0.530323C10.0856 0.418308 9.95264 0.329452 9.80632 0.268828C9.65999 0.208205 9.50316 0.177002 9.34477 0.177002C9.18638 0.177002 9.02955 0.208205 8.88322 0.268828C8.7369 0.329452 8.60395 0.418308 8.49197 0.530323L6.7941 2.22838L8.94794 4.38205C9.20112 4.29595 9.47334 4.28248 9.73378 4.34315C9.99422 4.40383 10.2325 4.53623 10.4215 4.72536C10.6116 4.91568 10.7443 5.15562 10.8045 5.41778C10.8646 5.67994 10.8499 5.95374 10.7618 6.2079L12.8373 8.28371C13.3395 8.11074 13.919 8.22271 14.32 8.62437C14.4533 8.7576 14.559 8.91578 14.6312 9.08989C14.7033 9.26399 14.7405 9.45061 14.7405 9.63907C14.7405 9.82754 14.7033 10.0142 14.6312 10.1883C14.559 10.3624 14.4533 10.5206 14.32 10.6538C14.0855 10.8885 13.7768 11.0347 13.4466 11.0675C13.1164 11.1003 12.785 11.0177 12.5089 10.8337C12.2328 10.6496 12.0289 10.3756 11.9321 10.0582C11.8353 9.74079 11.8515 9.39965 11.9779 9.09283L10.0422 7.15712L10.042 12.2513C10.1823 12.3207 10.3105 12.4123 10.4215 12.5227C10.5548 12.656 10.6606 12.8142 10.7327 12.9883C10.8048 13.1624 10.842 13.3491 10.842 13.5376C10.842 13.726 10.8048 13.9127 10.7327 14.0868C10.6606 14.261 10.5548 14.4192 10.4215 14.5524C9.86077 15.1132 8.95199 15.1132 8.39212 14.5524C8.22486 14.3853 8.10149 14.1794 8.03298 13.9531C7.96447 13.7268 7.95295 13.4871 7.99943 13.2552C8.04591 13.0234 8.14895 12.8066 8.2994 12.6242C8.44986 12.4418 8.64305 12.2994 8.86181 12.2096V7.068C8.68583 6.99614 8.5261 6.88961 8.39212 6.75476C7.96744 6.3306 7.86531 5.70745 8.08292 5.1859L5.95984 3.06246L0.353471 8.66849C0.241441 8.78052 0.152574 8.91351 0.0919435 9.05988C0.031313 9.20625 0.000106812 9.36313 0.000106812 9.52156C0.000106812 9.67999 0.031313 9.83687 0.0919435 9.98324C0.152574 10.1296 0.241441 10.2626 0.353471 10.3746L8.53011 18.5509C8.75631 18.7771 9.06306 18.9041 9.38291 18.9041C9.70276 18.9041 10.0095 18.7771 10.2357 18.5509L18.3742 10.4128C18.6004 10.1865 18.7274 9.87959 18.7274 9.55962C18.7274 9.23965 18.6004 8.93278 18.3742 8.70646Z" fill="#DE4C36"/>
</g>
<defs>
<clipPath id="clip0">
<rect width="45" height="18.99" fill="white"/>
</clipPath>
</defs>
</svg>
