<svg width="25" height="35" viewBox="0 0 25 35" fill="none" xmlns="http://www.w3.org/2000/svg">
<g clip-path="url(#clip0)">
<path d="M2.25637 32.1875L0 6.87927H24.794L22.5352 32.1835L12.3818 34.9984L2.25637 32.1875Z" fill="#E44D26"/>
<path d="M12.397 32.8469L20.6013 30.5722L22.5318 8.94867H12.397V32.8469Z" fill="#F16529"/>
<path d="M12.397 18.3351H8.28976L8.00604 15.1566H12.397V12.0526H4.61371L4.68809 12.8854L5.45096 21.439H12.397V18.3351ZM12.397 26.3964L12.3834 26.4001L8.92652 25.4666L8.70551 22.9911H5.58969L6.0246 27.8648L12.3828 29.6298L12.397 29.6258V26.3964Z" fill="#EBEBEB"/>
<path d="M2.30686 0.00164795H3.8842V1.56006H5.3271V0.00164795H6.90451V4.72096H5.3271V3.14068H3.8842V4.72096H2.30697L2.30686 0.00164795ZM8.97892 1.56671H7.59034V0.00164795H11.9458V1.56671H10.5566V4.72096H8.97898V1.56671H8.97892ZM12.6369 0.00164795H14.2818L15.2936 1.65992L16.3044 0.00164795H17.9498V4.72096H16.3786V2.38176L15.2934 4.05975H15.2663L14.1803 2.38176V4.72096H12.6369V0.00164795H12.6369ZM18.7347 0.00164795H20.3125V3.16108H22.5309V4.72096H18.7347V0.00164795Z" fill="black"/>
<path d="M12.3863 18.3351V21.439H16.2085L15.8482 25.4647L12.3863 26.3989V29.6282L18.7496 27.8648L18.7961 27.3402L19.5256 19.1686L19.6013 18.3351H18.765H12.3863ZM12.3863 12.0526V15.1566H19.8838L19.946 14.4589L20.0874 12.8854L20.1617 12.0526H12.3863Z" fill="white"/>
</g>
<defs>
<clipPath id="clip0">
<rect width="24.794" height="35" fill="white"/>
</clipPath>
</defs>
</svg>
