<svg width="40" height="40" viewBox="0 0 40 40" fill="none" xmlns="http://www.w3.org/2000/svg">
<path d="M0 0H40V40H0V0Z" fill="#F0DB4F"/>
<path d="M36.7262 30.4601C36.4335 28.635 35.2434 27.1027 31.7186 25.673C30.4943 25.1103 29.1293 24.7073 28.7225 23.7795C28.578 23.2396 28.559 22.9354 28.6502 22.6084C28.9126 21.5475 30.1787 21.2167 31.1825 21.5209C31.8289 21.7376 32.4411 22.2358 32.8099 23.0304C34.5361 21.9126 34.5323 21.9202 35.7376 21.1521C35.2966 20.4677 35.0608 20.1521 34.7719 19.8593C33.7338 18.6996 32.3194 18.1027 30.057 18.1483C29.6654 18.1977 29.27 18.2509 28.8783 18.3004C27.7491 18.5856 26.673 19.1787 26.0418 19.9734C24.1483 22.1217 24.6882 25.8822 26.9924 27.4297C29.2624 29.1332 32.597 29.521 33.0228 31.1142C33.4373 33.0647 31.5894 33.6959 29.7529 33.4716C28.3993 33.1902 27.6464 32.502 26.8327 31.251C25.3347 32.118 25.3347 32.118 23.7947 33.0039C24.1598 33.8024 24.5438 34.1636 25.156 34.8556C28.0533 37.7948 35.3042 37.6503 36.6046 33.2016C36.6578 33.0495 37.0076 32.0305 36.7262 30.4601ZM21.7453 18.384H18.0038C18.0038 21.616 17.9887 24.8251 17.9887 28.0571C17.9887 30.1141 18.0951 32.0001 17.7605 32.578C17.213 33.7149 15.7948 33.5742 15.1484 33.3536C14.4906 33.0304 14.156 32.5704 13.7681 31.9202C13.6617 31.7339 13.5818 31.5894 13.5552 31.578C12.54 32.1978 11.5286 32.8213 10.5134 33.4411C11.0191 34.4792 11.7643 35.3803 12.7187 35.9658C14.1445 36.8213 16.0609 37.0837 18.0647 36.6236C19.3689 36.2434 20.4943 35.4564 21.0837 34.2586C21.9354 32.6883 21.7529 30.7871 21.7453 28.6845C21.7643 25.2548 21.7453 21.8251 21.7453 18.384Z" fill="#323330"/>
</svg>
