<svg width="45" height="41" viewBox="0 0 45 41" fill="none" xmlns="http://www.w3.org/2000/svg">
<g clip-path="url(#clip0)">
<path d="M0.132523 20.1285C0.132523 23.4991 3.43057 26.6454 8.62996 28.419C7.59166 33.6353 8.44399 37.8397 11.2905 39.4779C14.2162 41.1619 18.5751 39.9963 22.7123 36.3871C26.745 39.8505 30.8207 41.2134 33.6647 39.5705C36.5879 37.8818 37.4767 33.3923 36.4098 28.0131C41.8254 26.2264 44.8547 23.5434 44.8547 20.1285C44.8547 16.8362 41.5507 13.988 36.4212 12.2258C37.5699 6.6244 36.5966 2.52203 33.6322 0.816144C30.7743 -0.828522 26.6512 0.604948 22.5592 4.1588C18.3019 0.386735 14.2196 -0.764847 11.2583 0.945774C8.40304 2.59518 7.58833 6.87611 8.62996 12.1888C3.60599 13.9368 0.132523 16.8495 0.132523 20.1285Z" fill="white"/>
<path d="M35.3349 13.9757C34.9122 13.831 34.4859 13.697 34.0564 13.5737C34.1276 13.2849 34.1935 12.9947 34.2539 12.7035C35.2218 8.01506 34.589 4.23808 32.428 2.99476C30.3562 1.8023 26.9676 3.04563 23.5453 6.01764C23.208 6.31116 22.8783 6.61314 22.5564 6.92329C22.3408 6.71706 22.1214 6.51483 21.8983 6.31672C18.3116 3.13859 14.7165 1.7995 12.5578 3.0465C10.4879 4.24229 9.8748 7.79316 10.7461 12.2364C10.8328 12.6764 10.9307 13.1141 11.0397 13.5491C10.531 13.6933 10.0397 13.847 9.56966 14.0105C5.3648 15.4734 2.67932 17.7664 2.67932 20.1446C2.67932 22.6011 5.56201 25.065 9.94195 26.5588C10.2971 26.6793 10.6552 26.791 11.0159 26.8938C10.8987 27.3625 10.7947 27.8344 10.7039 28.3089C9.87322 32.6749 10.522 36.1415 12.5865 37.33C14.7188 38.557 18.2975 37.2958 21.7824 34.2559C22.0579 34.0155 22.3344 33.7607 22.6112 33.4935C22.9599 33.8293 23.3179 34.1553 23.6848 34.4711C27.0604 37.3698 30.3941 38.5403 32.4568 37.3487C34.5872 36.118 35.2794 32.3939 34.3805 27.8628C34.3119 27.5167 34.232 27.1632 34.1423 26.8033C34.3937 26.7293 34.6403 26.6528 34.8809 26.5732C39.4342 25.0678 42.3965 22.6339 42.3965 20.1446C42.3965 17.7578 39.6245 15.4494 35.3349 13.9757Z" fill="#53C1DE"/>
<path d="M34.3473 24.9661C34.1302 25.0378 33.9073 25.1071 33.6802 25.1743C33.1775 23.5863 32.499 21.8976 31.669 20.1531C32.4612 18.4498 33.1133 16.7829 33.602 15.2051C34.0082 15.3226 34.4026 15.4463 34.7826 15.5769C38.4581 16.8394 40.6999 18.7063 40.6999 20.1447C40.6999 21.6769 38.2786 23.6661 34.3474 24.9661H34.3473ZM32.7161 28.1917C33.1135 30.1953 33.1703 32.0068 32.907 33.4229C32.6704 34.6953 32.1947 35.5436 31.6066 35.8834C30.3549 36.6064 27.678 35.6666 24.7915 33.1876C24.4605 32.9035 24.1271 32.6 23.7927 32.279C24.9119 31.0574 26.0303 29.6373 27.1219 28.0603C29.0421 27.8904 30.856 27.6123 32.5011 27.2329C32.582 27.5592 32.654 27.879 32.7161 28.1917ZM16.2197 35.7585C14.9968 36.1895 14.0229 36.2017 13.4342 35.863C12.1813 35.1421 11.6607 32.3583 12.371 28.6246C12.4554 28.1834 12.5521 27.7446 12.661 27.3087C14.2878 27.6678 16.0886 27.9261 18.0133 28.0819C19.1121 29.625 20.2629 31.0434 21.4226 32.2855C21.1761 32.5234 20.9238 32.7553 20.6659 32.9808C19.1249 34.3252 17.5807 35.2787 16.2199 35.7585H16.2197ZM10.4907 24.9566C8.55403 24.296 6.95466 23.4375 5.85836 22.5008C4.87332 21.6588 4.37589 20.823 4.37589 20.1447C4.37589 18.7016 6.5321 16.8606 10.1283 15.6094C10.5796 15.453 11.0355 15.3099 11.4953 15.1802C11.9923 16.7934 12.6443 18.4802 13.4311 20.1859C12.6341 21.917 11.9728 23.6306 11.4712 25.2629C11.1419 25.1688 10.815 25.0667 10.4907 24.9566ZM12.4112 11.9112C11.6647 8.1042 12.1604 5.23252 13.4078 4.51193C14.7367 3.74432 17.6748 4.8389 20.7715 7.58287C20.9695 7.75828 21.1683 7.94194 21.3674 8.13191C20.2136 9.36839 19.0734 10.7761 17.9841 12.3102C16.1162 12.483 14.328 12.7605 12.6842 13.1322C12.5829 12.7275 12.4919 12.3203 12.4112 11.911V11.9112ZM29.5434 16.1328C29.1551 15.4635 28.7524 14.8026 28.3356 14.1507C29.6029 14.3103 30.817 14.5225 31.9571 14.7823C31.6149 15.8771 31.1882 17.0218 30.6859 18.1953C30.3188 17.5003 29.9379 16.8127 29.5434 16.1328ZM22.5569 9.34191C23.3394 10.1879 24.1232 11.1327 24.8941 12.1576C23.3303 12.0839 21.7638 12.0835 20.1999 12.1566C20.9716 11.1411 21.762 10.1977 22.5569 9.34191ZM15.5256 16.1444C15.1359 16.8188 14.7622 17.5022 14.4045 18.1941C13.9104 17.0246 13.4876 15.8748 13.1424 14.7644C14.2756 14.5113 15.4841 14.3045 16.7432 14.1475C16.3217 14.8035 15.9157 15.4693 15.5256 16.1444ZM16.7794 26.2627C15.4786 26.1178 14.2519 25.9215 13.1191 25.6754C13.4697 24.5454 13.9018 23.3709 14.4064 22.1763C14.7656 22.8687 15.141 23.5525 15.5324 24.2272C15.9318 24.9155 16.3476 25.5942 16.7794 26.2627ZM22.6038 31.0671C21.7996 30.2011 20.9976 29.2433 20.2142 28.2131C20.9746 28.2429 21.7499 28.258 22.5379 28.258C23.3475 28.258 24.1478 28.24 24.9354 28.2049C24.162 29.2538 23.3811 30.213 22.6038 31.0671ZM30.7021 22.1154C31.2329 23.323 31.6804 24.4912 32.0358 25.6021C30.8842 25.8643 29.6409 26.0755 28.3309 26.2324C28.7507 25.5682 29.1572 24.8958 29.5502 24.2155C29.9497 23.5241 30.3338 22.8239 30.7021 22.1154ZM28.0804 23.3696C27.4788 24.4126 26.8433 25.4358 26.175 26.4376C24.9966 26.5216 23.7789 26.5649 22.5379 26.5649C21.302 26.5649 20.0997 26.5265 18.9419 26.4516C18.2563 25.4522 17.6088 24.4272 17.0008 23.3789C16.3957 22.3362 15.8305 21.2709 15.3064 20.1854C15.8292 19.0995 16.3927 18.0336 16.9957 16.9901V16.9904C17.5986 15.9466 18.241 14.926 18.9215 13.9309C20.1027 13.8418 21.3138 13.7951 22.5381 13.7951C23.7678 13.7951 24.9804 13.8421 26.1613 13.9319C26.8349 14.9255 27.4732 15.9426 28.0749 16.9811C28.6801 18.0224 29.2511 19.083 29.7872 20.1613C29.2566 21.2506 28.6874 22.3208 28.0806 23.3696H28.0804ZM31.5806 4.46158C32.9105 5.22708 33.4278 8.31381 32.5922 12.3618C32.5374 12.6255 32.4778 12.8882 32.4136 13.1498C30.7659 12.7703 28.9765 12.4879 27.1031 12.3125C26.0117 10.7617 24.881 9.35155 23.7458 8.13103C24.0433 7.84486 24.3478 7.5661 24.6591 7.29502C27.5914 4.74838 30.3319 3.74292 31.5806 4.46158Z" fill="white"/>
<path d="M22.5379 16.6053C24.4967 16.6053 26.0845 18.19 26.0845 20.1446C26.0845 22.0994 24.4967 23.6841 22.5379 23.6841C20.5793 23.6841 18.9913 22.0994 18.9913 20.1446C18.9913 18.19 20.5793 16.6053 22.5379 16.6053Z" fill="#53C1DE"/>
</g>
<defs>
<clipPath id="clip0">
<rect width="45" height="40.3448" fill="white"/>
</clipPath>
</defs>
</svg>
